<svg width="1054" height="212" viewBox="0 0 1054 212" fill="none" xmlns="http://www.w3.org/2000/svg">
    <path fill-rule="evenodd" clip-rule="evenodd" d="M16 19C8.26801 19 2 25.268 2 33V179C2 186.732 8.26801 193 16 193H181C188.732 193 195 186.732 195 179V33C195 25.268 188.732 19 181 19H16ZM132.071 136.197C133.353 132.655 134.053 128.834 134.053 124.85C134.053 106.431 119.11 91.5 100.677 91.5C96.8495 91.5 93.1727 92.1437 89.749 93.3286L78.694 64.6081C84.7244 62.5801 89.0677 56.8844 89.0677 50.175C89.0677 41.7665 82.2459 34.95 73.8308 34.95C65.4158 34.95 58.594 41.7665 58.594 50.175C58.594 58.5835 65.4158 65.4 73.8308 65.4C74.477 65.4 75.1138 65.3598 75.7388 65.2818L86.9611 94.4371C79.422 97.8371 73.3736 103.954 70.0656 111.538L48.0801 103.239C48.3129 102.264 48.4361 101.246 48.4361 100.2C48.4361 92.9927 42.5889 87.15 35.3759 87.15C28.163 87.15 22.3158 92.9927 22.3158 100.2C22.3158 107.407 28.163 113.25 35.3759 113.25C40.4812 113.25 44.9023 110.323 47.0501 106.057L68.9921 114.34C67.8948 117.644 67.3008 121.178 67.3008 124.85C67.3008 130.244 68.5825 135.34 70.8583 139.848L54.3837 150.185C51.6273 146.263 47.0662 143.7 41.906 143.7C33.4909 143.7 26.6692 150.516 26.6692 158.925C26.6692 167.334 33.4909 174.15 41.906 174.15C50.3211 174.15 57.1429 167.334 57.1429 158.925C57.1429 156.746 56.6849 154.674 55.8598 152.8L72.3314 142.466C78.2242 151.913 88.7157 158.2 100.677 158.2C114.059 158.2 125.602 150.33 130.923 138.969L146.02 145.003C145.786 145.981 145.662 147.001 145.662 148.05C145.662 155.257 151.509 161.1 158.722 161.1C165.935 161.1 171.782 155.257 171.782 148.05C171.782 140.843 165.935 135 158.722 135C153.62 135 149.201 137.923 147.052 142.185L132.071 136.197Z" fill="white"/>
    <path d="M311.712 187.62C306.765 187.62 301.96 186.913 297.296 185.5C292.632 184.087 288.392 182.179 284.576 179.776C280.76 177.232 277.58 174.405 275.036 171.296C272.492 168.045 270.867 164.724 270.16 161.332L276.944 158.788L275.46 185.076H247.052V28.62H277.156V99.64L271.432 97.308C272.28 93.916 273.905 90.6653 276.308 87.556C278.711 84.3053 281.749 81.4787 285.424 79.076C289.099 76.532 293.127 74.5533 297.508 73.14C301.889 71.7267 306.412 71.02 311.076 71.02C320.828 71.02 329.52 73.564 337.152 78.652C344.784 83.5987 350.791 90.4533 355.172 99.216C359.695 107.979 361.956 118.013 361.956 129.32C361.956 140.627 359.765 150.661 355.384 159.424C351.003 168.187 344.996 175.112 337.364 180.2C329.873 185.147 321.323 187.62 311.712 187.62ZM304.504 161.968C310.157 161.968 315.033 160.625 319.132 157.94C323.372 155.113 326.693 151.297 329.096 146.492C331.499 141.545 332.7 135.821 332.7 129.32C332.7 122.96 331.499 117.307 329.096 112.36C326.835 107.413 323.584 103.597 319.344 100.912C315.104 98.2267 310.157 96.884 304.504 96.884C298.851 96.884 293.904 98.2267 289.664 100.912C285.424 103.597 282.103 107.413 279.7 112.36C277.297 117.307 276.096 122.96 276.096 129.32C276.096 135.821 277.297 141.545 279.7 146.492C282.103 151.297 285.424 155.113 289.664 157.94C293.904 160.625 298.851 161.968 304.504 161.968ZM402.748 151.792L393.844 126.988L446.844 73.352H486.488L402.748 151.792ZM374.128 185.5V28.62H404.232V185.5H374.128ZM450.024 185.5L409.744 134.832L430.944 117.872L486.276 185.5H450.024ZM492.301 185.5V73.352H521.133L521.981 96.248L516.045 98.792C517.6 93.704 520.356 89.1107 524.313 85.012C528.412 80.772 533.288 77.38 538.941 74.836C544.595 72.292 550.531 71.02 556.749 71.02C565.229 71.02 572.296 72.716 577.949 76.108C583.744 79.5 588.055 84.6587 590.881 91.584C593.849 98.368 595.333 106.777 595.333 116.812V185.5H565.229V119.144C565.229 114.056 564.523 109.816 563.109 106.424C561.696 103.032 559.505 100.559 556.537 99.004C553.711 97.308 550.177 96.6013 545.937 96.884C542.545 96.884 539.365 97.4493 536.397 98.58C533.571 99.5693 531.097 101.053 528.977 103.032C526.999 105.011 525.373 107.272 524.101 109.816C522.971 112.36 522.405 115.116 522.405 118.084V185.5H507.565C504.315 185.5 501.417 185.5 498.873 185.5C496.329 185.5 494.139 185.5 492.301 185.5ZM657.464 187.62C647.712 187.62 638.949 185.147 631.176 180.2C623.403 175.112 617.255 168.257 612.732 159.636C608.351 150.873 606.16 140.768 606.16 129.32C606.16 118.155 608.351 108.191 612.732 99.428C617.255 90.6653 623.332 83.74 630.964 78.652C638.737 73.564 647.571 71.02 657.464 71.02C662.693 71.02 667.711 71.868 672.516 73.564C677.463 75.1187 681.844 77.3093 685.66 80.136C689.617 82.9627 692.797 86.1427 695.2 89.676C697.603 93.068 698.945 96.672 699.228 100.488L691.596 101.76V28.62H721.7V185.5H693.292L692.02 159.636L697.956 160.272C697.673 163.805 696.401 167.197 694.14 170.448C691.879 173.699 688.84 176.667 685.024 179.352C681.349 181.896 677.109 183.945 672.304 185.5C667.64 186.913 662.693 187.62 657.464 187.62ZM664.248 162.604C669.901 162.604 674.848 161.191 679.088 158.364C683.328 155.537 686.649 151.651 689.052 146.704C691.455 141.757 692.656 135.963 692.656 129.32C692.656 122.819 691.455 117.095 689.052 112.148C686.649 107.06 683.328 103.173 679.088 100.488C674.848 97.6613 669.901 96.248 664.248 96.248C658.595 96.248 653.648 97.6613 649.408 100.488C645.309 103.173 642.059 107.06 639.656 112.148C637.395 117.095 636.264 122.819 636.264 129.32C636.264 135.963 637.395 141.757 639.656 146.704C642.059 151.651 645.309 155.537 649.408 158.364C653.648 161.191 658.595 162.604 664.248 162.604Z" fill="white"/>
</svg>
